<?xml version="1.0" standalone="no"?>
<!DOCTYPE svg PUBLIC "-//W3C//DTD SVG 20010904//EN"
 "http://www.w3.org/TR/2001/REC-SVG-20010904/DTD/svg10.dtd">
<svg version="1.0" xmlns="http://www.w3.org/2000/svg"
 width="180.000000pt" height="180.000000pt" viewBox="0 0 180.000000 180.000000"
 preserveAspectRatio="xMidYMid meet">
<metadata>
Created by potrace 1.11, written by Peter Selinger 2001-2013
</metadata>
<g transform="translate(0.000000,180.000000) scale(0.100000,-0.100000)"
fill="#000000" stroke="none">
<path d="M790 1758 c-14 -5 -34 -11 -44 -14 -32 -6 -136 -62 -180 -97 -65 -51
-166 -164 -166 -186 0 -6 -3 -11 -8 -11 -19 0 -100 -189 -123 -290 -16 -70
-18 -82 -21 -118 -1 -18 -6 -36 -10 -38 -4 -3 -4 -14 2 -24 6 -10 7 -21 2 -24
-12 -7 -3 -180 14 -271 9 -47 55 -198 67 -220 6 -11 11 -22 12 -25 0 -12 77
-138 101 -166 104 -124 189 -186 312 -226 95 -31 241 -30 332 2 163 58 301
189 398 378 12 23 22 49 22 57 0 8 4 15 10 15 5 0 9 3 8 8 -1 4 6 32 16 63 23
79 34 132 42 218 11 111 1 289 -17 323 -5 10 -8 18 -5 18 11 0 -37 148 -73
223 -98 206 -250 346 -431 396 -73 21 -216 25 -260 9z"/>
</g>
</svg>
